<svg width="100" height="100" viewBox="0 0 100 100" fill="none" xmlns="http://www.w3.org/2000/svg">
<path fill-rule="evenodd" clip-rule="evenodd" d="M43.75 51.5038L49.454 64.26H46.3641L45.2324 61.5148H39.3119L38.1741 64.26H35.1482L40.8339 51.5038H43.75ZM53.2241 51.5038L59.5656 59.2423V51.5038H62.4817V64.26H60.0415L53.6847 56.5184V64.26H50.7687V51.5038H53.2241ZM74.3625 56.6435V58.9373H68.4389V61.8899H75.3813V64.26H65.5076V51.5038H75.1464V53.8738H68.4358V56.6435H74.3625ZM53.1448 44.9671C53.749 44.9728 54.3469 44.8447 54.8957 44.5919C55.4577 44.3216 55.9549 43.9336 56.3537 43.4541L58.2479 45.2019C57.6455 45.9407 56.8731 46.5226 55.9968 46.8979C55.0422 47.298 54.0151 47.4963 52.9801 47.4805C52.0433 47.4887 51.1129 47.3253 50.2349 46.9985C49.4187 46.6922 48.6728 46.2243 48.0417 45.6229C47.4214 45.0301 46.9284 44.317 46.5929 43.5273C45.8973 41.835 45.8973 39.9366 46.5929 38.2443C46.9295 37.4529 47.4259 36.7395 48.0509 36.1487C48.6823 35.5478 49.4282 35.08 50.244 34.7731C52.1067 34.0971 54.1528 34.1285 55.9938 34.8615C56.8702 35.2323 57.6429 35.8113 58.2449 36.5483L56.3507 38.2961C55.9471 37.8264 55.4507 37.4452 54.8926 37.1767C54.3436 36.9249 53.7457 36.7978 53.1418 36.8045C52.5816 36.8036 52.0261 36.907 51.5038 37.1096C51.0183 37.2964 50.5768 37.5821 50.2074 37.9484C49.8403 38.3172 49.5527 38.7573 49.3625 39.2417C48.9598 40.3102 48.9598 41.4888 49.3625 42.5574C49.552 43.0421 49.8397 43.4824 50.2074 43.8507C50.575 44.2193 51.0169 44.5052 51.5038 44.6895C52.0284 44.8845 52.5852 44.9787 53.1448 44.9671ZM72.1572 36.167C73.1114 37.1034 73.7618 38.3054 74.0234 39.6165C74.2851 40.9277 74.146 42.2872 73.6243 43.5182C73.2841 44.3099 72.7847 45.0232 72.1572 45.6137C71.518 46.2106 70.769 46.6778 69.9518 46.9894C69.0702 47.3234 68.134 47.4899 67.1913 47.4805C66.2368 47.4893 65.2887 47.3228 64.3942 46.9894C63.5697 46.6793 62.8149 46.2086 62.1736 45.6046C61.5495 45.013 61.0533 44.2998 60.7156 43.509C60.0243 41.8275 60.0243 39.9411 60.7156 38.2595C61.0553 37.4684 61.5548 36.756 62.1828 36.167C62.8245 35.5636 63.5791 35.093 64.4034 34.7822C66.1942 34.1233 68.161 34.1233 69.9518 34.7822C70.7718 35.0924 71.5216 35.5632 72.1572 36.167ZM18.1155 37.6922C18.6983 37.6922 19.268 37.865 19.7526 38.1888C20.2371 38.5125 20.6148 38.9727 20.8378 39.5111C21.0608 40.0495 21.1192 40.642 21.0055 41.2136C20.8918 41.7852 20.6112 42.3102 20.1991 42.7223C19.787 43.1343 19.262 43.415 18.6904 43.5287C18.1188 43.6424 17.5264 43.584 16.9879 43.361C16.4495 43.138 15.9893 42.7603 15.6656 42.2757C15.3418 41.7912 15.169 41.2215 15.169 40.6387C15.1714 39.8588 15.4829 39.1117 16.0352 38.5611C16.5876 38.0105 17.3357 37.7013 18.1155 37.7013V37.6922ZM81.8845 37.6922C82.4674 37.6916 83.0373 37.8639 83.5223 38.1873C84.0073 38.5107 84.3854 38.9707 84.6089 39.509C84.8324 40.0474 84.8912 40.6399 84.7778 41.2117C84.6645 41.7835 84.3841 42.3088 83.9721 42.7212C83.5602 43.1336 83.0351 43.4145 82.4635 43.5284C81.8918 43.6424 81.2992 43.5842 80.7606 43.3613C80.222 43.1384 79.7617 42.7607 79.4378 42.2761C79.1138 41.7914 78.9409 41.2216 78.9409 40.6387C78.9434 39.8594 79.2545 39.1127 79.8061 38.5622C80.3578 38.0117 81.1051 37.7021 81.8845 37.7013V37.6922ZM21.0652 52.0589C21.8454 52.3915 22.5105 52.9463 22.9777 53.6542C23.419 54.4022 23.6518 55.2549 23.6518 56.1234C23.6518 56.9919 23.419 57.8446 22.9777 58.5926C22.5105 59.3005 21.8454 59.8553 21.0652 60.1879C20.1309 60.5784 19.1248 60.7675 18.1125 60.743H15.5564V64.26H12.5915V51.5038H18.1125C19.1248 51.4793 20.1309 51.6684 21.0652 52.0589ZM37.4451 34.5077V47.2609H35.0232L28.6725 39.5193V45.9889H28.7091V61.8503H35.1147V64.257H25.7473V34.5077H28.1875L34.529 42.2462V34.5077H37.4451ZM43.8141 34.5077V47.2609H40.8736V34.5077H43.8141ZM40.2422 59.285H44.296L42.2737 54.4046L40.2422 59.285ZM67.173 44.9671C67.7136 44.9694 68.2493 44.8658 68.75 44.662C69.2252 44.4725 69.6561 44.1869 70.0159 43.8232C70.3846 43.4551 70.6733 43.0148 70.8638 42.5299C71.2666 41.4614 71.2666 40.2828 70.8638 39.2143C70.6736 38.7314 70.3883 38.2916 70.025 37.9209C69.6658 37.5565 69.2347 37.2709 68.7592 37.0821C68.2547 36.8805 67.7163 36.7769 67.173 36.7771C66.6335 36.775 66.0988 36.8786 65.5991 37.0821C65.1203 37.276 64.686 37.5653 64.3226 37.9323C63.9592 38.2994 63.6743 38.7366 63.4852 39.2173C63.0826 40.2827 63.0826 41.4584 63.4852 42.5238C63.6721 43.0111 63.9577 43.4546 64.3241 43.8263C64.6811 44.1932 65.1128 44.4793 65.5899 44.6651C66.0932 44.867 66.6308 44.9695 67.173 44.9671ZM15.5564 58.3364H17.96C18.8751 58.3364 19.5522 58.1442 20.0006 57.7538C20.4322 57.3209 20.6745 56.7346 20.6745 56.1234C20.6745 55.5122 20.4322 54.9259 20.0006 54.493C19.5522 54.1026 18.872 53.9104 17.96 53.9104H15.5564V58.3364ZM83.2205 16.7765C90.3511 23.9077 94.9975 33.1444 96.4724 43.1206C97.9473 53.0969 96.1725 63.2829 91.4104 72.1724V64.9707C95.0443 54.8915 94.8775 43.8329 90.9413 33.8678C87.0051 23.9027 79.5697 15.7153 70.0288 10.8401C60.4879 5.96485 49.4965 4.73658 39.1148 7.38548C28.733 10.0344 19.6738 16.3786 13.635 25.229C7.59615 34.0794 4.99239 44.8283 6.31173 55.4611C7.63107 66.0939 12.7829 75.8805 20.8017 82.9866C28.8204 90.0927 39.1555 94.0304 49.8697 94.0617C60.584 94.0929 70.9419 90.2156 79.002 83.1564C79.3527 82.8514 79.6639 82.5708 79.9323 82.3206C80.0726 82.1925 80.2373 82.0431 80.399 81.8814V64.26V53.9104H76.2933V51.5038H87.4085V53.9104H83.3272V64.26V83.1229L82.8911 83.5499C82.6226 83.8153 82.281 84.1203 81.918 84.465C81.555 84.8097 81.2226 85.1025 80.9297 85.3587C74.0367 91.386 65.5323 95.2673 56.4626 96.5253C47.3929 97.7832 38.1532 96.363 29.88 92.4393C21.6067 88.5156 14.6606 82.2595 9.89583 74.4403C5.13108 66.6211 2.75546 57.5799 3.06113 48.4284C3.3668 39.277 6.34044 30.4144 11.6163 22.9306C16.8922 15.4468 24.2404 9.66809 32.757 6.30518C41.2736 2.94228 50.5875 2.14179 59.553 4.00217C68.5186 5.86254 76.745 10.3027 83.2205 16.7765ZM50 0C59.8891 0 69.5561 2.93245 77.7785 8.42652C86.001 13.9206 92.4096 21.7295 96.194 30.8658C99.9784 40.0021 100.969 50.0555 99.0393 59.7545C97.11 69.4536 92.348 78.3627 85.3553 85.3553C78.3627 92.348 69.4536 97.11 59.7545 99.0393C50.0555 100.969 40.0021 99.9784 30.8658 96.194C21.7295 92.4096 13.9206 86.001 8.42652 77.7785C2.93245 69.5561 0 59.8891 0 50C0 36.7392 5.26784 24.0215 14.6447 14.6447C24.0215 5.26784 36.7392 0 50 0V0Z" fill="white"/>
</svg>
